<?xml version="1.0" encoding="utf-8"?>
<!-- Generator: Adobe Illustrator 18.1.1, SVG Export Plug-In . SVG Version: 6.00 Build 0)  -->
<svg version="1.1" id="Layer_1" xmlns="http://www.w3.org/2000/svg" xmlns:xlink="http://www.w3.org/1999/xlink" x="0px" y="0px"
	 viewBox="0 0 172.7 75.4" enable-background="new 0 0 172.7 75.4" xml:space="preserve">
<g>
	<path fill="#221F1F" d="M149.4,14.6c0-8.1-6.6-14.6-14.6-14.6c-8.1,0-14.6,6.6-14.6,14.6c0,5.4,3,10.2,7.4,12.7l-7.4,48.1h29.3
		l-7.2-48.1C146.5,24.7,149.4,20,149.4,14.6z"/>
	<g>
		<path fill="#231F20" d="M0,73.3V8.4h5.7v64.9H0z"/>
		<path fill="#231F20" d="M46,52.1c0,3.4-0.3,6.4-1,9.2c-0.7,2.7-1.7,5.1-2.9,7.1c-1.3,2-2.8,3.5-4.7,4.6c-1.9,1.1-3.9,1.6-6.2,1.6
			c-2.3,0-4.3-0.5-6.2-1.6c-1.8-1.1-3.4-2.6-4.7-4.6c-1.3-2-2.3-4.4-3-7.1c-0.7-2.7-1-5.8-1-9.2c0-3.4,0.3-6.5,1-9.3
			c0.7-2.8,1.6-5.2,2.9-7.2c1.3-2,2.8-3.5,4.7-4.6c1.9-1.1,4-1.6,6.3-1.6c2.3,0,4.4,0.5,6.2,1.6c1.9,1.1,3.4,2.6,4.7,4.6
			c1.3,2,2.2,4.4,2.9,7.2C45.6,45.6,46,48.7,46,52.1z M40.1,52c0-2.5-0.2-4.8-0.6-7c-0.4-2.2-0.9-4-1.7-5.6
			c-0.7-1.6-1.7-2.8-2.8-3.7c-1.1-0.9-2.4-1.4-4-1.4c-1.5,0-2.9,0.5-4,1.4c-1.1,0.9-2.1,2.2-2.8,3.7c-0.7,1.6-1.3,3.4-1.6,5.6
			c-0.4,2.2-0.6,4.5-0.6,7c0,2.5,0.2,4.8,0.6,6.9c0.4,2.1,0.9,4,1.6,5.6c0.7,1.6,1.6,2.8,2.8,3.7c1.1,0.9,2.5,1.3,4,1.3
			c1.5,0,2.9-0.4,4-1.3c1.1-0.9,2.1-2.1,2.8-3.7c0.7-1.6,1.3-3.5,1.6-5.6C40,56.8,40.1,54.5,40.1,52z"/>
		<path fill="#231F20" d="M68.7,74.7c-2.4,0-4.5-0.6-6.3-1.7c-1.8-1.1-3.4-2.7-4.6-4.6c-1.2-2-2.2-4.3-2.8-7.1
			C54.4,58.5,54,55.4,54,52c0-3.4,0.3-6.4,0.9-9.2c0.6-2.8,1.6-5.2,2.8-7.2c1.3-2,2.8-3.5,4.6-4.6c1.8-1.1,3.9-1.6,6.3-1.6
			c2.2,0,4,0.4,5.6,1.2c1.5,0.8,2.8,1.7,3.7,2.8l-3,4.1c-0.7-1-1.5-1.7-2.6-2.3c-1-0.6-2.2-0.9-3.6-0.9c-1.5,0-2.9,0.4-4,1.3
			c-1.1,0.9-2,2.1-2.8,3.7c-0.7,1.6-1.3,3.4-1.7,5.6c-0.4,2.1-0.6,4.5-0.6,7.1c0,2.5,0.2,4.8,0.6,6.9c0.4,2.1,0.9,3.9,1.7,5.5
			c0.7,1.5,1.7,2.7,2.9,3.6c1.2,0.9,2.6,1.3,4.2,1.3c1.4,0,2.7-0.3,3.7-0.9c1.1-0.6,2-1.4,2.7-2.5l2.6,4.4
			C75.9,73.2,72.7,74.7,68.7,74.7z"/>
		<path fill="#231F20" d="M105.9,73.3L91.3,51.9h-0.2v21.4h-5.7V8.4h5.7v41.1h0.2L105,30.7h6.8L96.5,50.5l16.2,22.8H105.9z"/>
	</g>
	<g>
		<path fill="#231F20" d="M170.4,74.5c-0.9,0.2-1.9,0.3-2.8,0.3c-3,0-5.1-1-6.3-3.1c-1.2-2.1-1.8-4.8-1.8-8.2V35.8h-5.6v-4.6h5.5
			V19.4h5.6v11.8h7.5v4.6h-7.5v26.7c0,2.6,0.4,4.4,1.1,5.6c0.7,1.2,1.9,1.8,3.3,1.8c0.5,0,1.1-0.1,1.6-0.2c0.6-0.1,1.1-0.3,1.5-0.5
			l0.3,4.5C172,74,171.3,74.3,170.4,74.5z"/>
	</g>
</g>
</svg>
